REM DIRINDEX 1\2,1\3,1\4
REM DIRNAME cjc151,folder01,folder02,folder03
TITLE ""
FILE "114 114_TOEFL_3900.mp3" MP3
  TRACK 01 AUDIO
    TITLE "2:cjc151_4974"
    INDEX 01 00:00:00
  TRACK 02 AUDIO
    TITLE "0:"
    INDEX 01 00:01:40
  TRACK 03 AUDIO
    TITLE "3:cjc151_4975"
    INDEX 01 00:03:21
  TRACK 04 AUDIO
    TITLE "0:"
    INDEX 01 00:06:55
  TRACK 05 AUDIO
    TITLE "2:cjc151_4976"
    INDEX 01 00:08:34
  TRACK 06 AUDIO
    TITLE "0:"
    INDEX 01 00:09:73
  TRACK 07 AUDIO
    TITLE "3:cjc151_4977"
    INDEX 01 00:11:52
  TRACK 08 AUDIO
    TITLE "0:"
    INDEX 01 00:15:21
  TRACK 09 AUDIO
    TITLE "2:cjc151_4978"
    INDEX 01 00:16:73
  TRACK 10 AUDIO
    TITLE "0:"
    INDEX 01 00:18:52
  TRACK 11 AUDIO
    TITLE "3:cjc151_4979"
    INDEX 01 00:20:26
  TRACK 12 AUDIO
    TITLE "0:"
    INDEX 01 00:24:27
  TRACK 13 AUDIO
    TITLE "2:cjc151_4980"
    INDEX 01 00:26:18
  TRACK 14 AUDIO
    TITLE "0:"
    INDEX 01 00:27:51
  TRACK 15 AUDIO
    TITLE "3:cjc151_4981"
    INDEX 01 00:29:33
  TRACK 16 AUDIO
    TITLE "0:"
    INDEX 01 00:33:17
  TRACK 17 AUDIO
    TITLE "2:cjc151_4982"
    INDEX 01 00:34:71
  TRACK 18 AUDIO
    TITLE "0:"
    INDEX 01 00:36:44
  TRACK 19 AUDIO
    TITLE "3:cjc151_4983"
    INDEX 01 00:38:30
  TRACK 20 AUDIO
    TITLE "0:"
    INDEX 01 00:41:51
  TRACK 21 AUDIO
    TITLE "2:cjc151_4984"
    INDEX 01 00:43:39
  TRACK 22 AUDIO
    TITLE "0:"
    INDEX 01 00:44:61
  TRACK 23 AUDIO
    TITLE "3:cjc151_4985"
    INDEX 01 00:46:43
  TRACK 24 AUDIO
    TITLE "0:"
    INDEX 01 00:50:19
  TRACK 25 AUDIO
    TITLE "2:cjc151_4986"
    INDEX 01 00:51:73
  TRACK 26 AUDIO
    TITLE "0:"
    INDEX 01 00:53:13
  TRACK 27 AUDIO
    TITLE "3:cjc151_4987"
    INDEX 01 00:54:68
  TRACK 28 AUDIO
    TITLE "0:"
    INDEX 01 00:59:02
  TRACK 29 AUDIO
    TITLE "2:cjc151_4988"
    INDEX 01 01:00:59
  TRACK 30 AUDIO
    TITLE "0:"
    INDEX 01 01:01:64
  TRACK 31 AUDIO
    TITLE "3:cjc151_4989"
    INDEX 01 01:03:43
  TRACK 32 AUDIO
    TITLE "0:"
    INDEX 01 01:07:31
  TRACK 33 AUDIO
    TITLE "2:cjc151_4990"
    INDEX 01 01:09:12
  TRACK 34 AUDIO
    TITLE "0:"
    INDEX 01 01:10:30
  TRACK 35 AUDIO
    TITLE "3:cjc151_4991"
    INDEX 01 01:12:09
  TRACK 36 AUDIO
    TITLE "0:"
    INDEX 01 01:16:01
  TRACK 37 AUDIO
    TITLE "2:cjc151_4992"
    INDEX 01 01:17:59
  TRACK 38 AUDIO
    TITLE "0:"
    INDEX 01 01:19:09
  TRACK 39 AUDIO
    TITLE "3:cjc151_4993"
    INDEX 01 01:20:63
  TRACK 40 AUDIO
    TITLE "0:"
    INDEX 01 01:25:08
  TRACK 41 AUDIO
    TITLE "2:cjc151_4994"
    INDEX 01 01:26:62
  TRACK 42 AUDIO
    TITLE "0:"
    INDEX 01 01:28:10
  TRACK 43 AUDIO
    TITLE "3:cjc151_4995"
    INDEX 01 01:29:64
  TRACK 44 AUDIO
    TITLE "0:"
    INDEX 01 01:34:14
  TRACK 45 AUDIO
    TITLE "2:cjc151_4996"
    INDEX 01 01:35:69
  TRACK 46 AUDIO
    TITLE "0:"
    INDEX 01 01:37:13
  TRACK 47 AUDIO
    TITLE "3:cjc151_4997"
    INDEX 01 01:38:67
  TRACK 48 AUDIO
    TITLE "0:"
    INDEX 01 01:43:27
  TRACK 49 AUDIO
    TITLE "2:cjc151_4998"
    INDEX 01 01:45:08
  TRACK 50 AUDIO
    TITLE "0:"
    INDEX 01 01:46:31
  TRACK 51 AUDIO
    TITLE "3:cjc151_4999"
    INDEX 01 01:48:12
  TRACK 52 AUDIO
    TITLE "0:"
    INDEX 01 01:52:65
  TRACK 53 AUDIO
    TITLE "2:cjc151_5000"
    INDEX 01 01:54:42
  TRACK 54 AUDIO
    TITLE "0:"
    INDEX 01 01:56:00
  TRACK 55 AUDIO
    TITLE "3:cjc151_5001"
    INDEX 01 01:57:57
  TRACK 56 AUDIO
    TITLE "0:"
    INDEX 01 02:01:31
  TRACK 57 AUDIO
    TITLE "2:cjc151_5002"
    INDEX 01 02:03:08
  TRACK 58 AUDIO
    TITLE "0:"
    INDEX 01 02:04:25
  TRACK 59 AUDIO
    TITLE "3:cjc151_5003"
    INDEX 01 02:06:06
  TRACK 60 AUDIO
    TITLE "0:"
    INDEX 01 02:09:28
  TRACK 61 AUDIO
    TITLE "2:cjc151_5004"
    INDEX 01 02:11:14
  TRACK 62 AUDIO
    TITLE "0:"
    INDEX 01 02:12:44
  TRACK 63 AUDIO
    TITLE "3:cjc151_5005"
    INDEX 01 02:14:28
  TRACK 64 AUDIO
    TITLE "0:"
    INDEX 01 02:18:19
  TRACK 65 AUDIO
    TITLE "2:cjc151_5006"
    INDEX 01 02:20:09
  TRACK 66 AUDIO
    TITLE "0:"
    INDEX 01 02:21:24
  TRACK 67 AUDIO
    TITLE "3:cjc151_5007"
    INDEX 01 02:23:01
  TRACK 68 AUDIO
    TITLE "0:"
    INDEX 01 02:28:34
  TRACK 69 AUDIO
    TITLE "2:cjc151_5008"
    INDEX 01 02:30:17
  TRACK 70 AUDIO
    TITLE "0:"
    INDEX 01 02:31:24
  TRACK 71 AUDIO
    TITLE "3:cjc151_5009"
    INDEX 01 02:33:03
  TRACK 72 AUDIO
    TITLE "0:"
    INDEX 01 02:37:07
  TRACK 73 AUDIO
    TITLE "2:cjc151_5010"
    INDEX 01 02:38:61
  TRACK 74 AUDIO
    TITLE "0:"
    INDEX 01 02:40:00
  TRACK 75 AUDIO
    TITLE "3:cjc151_5011"
    INDEX 01 02:41:54
  TRACK 76 AUDIO
    TITLE "0:"
    INDEX 01 02:45:26
  TRACK 77 AUDIO
    TITLE "2:cjc151_5012"
    INDEX 01 02:47:05
  TRACK 78 AUDIO
    TITLE "0:"
    INDEX 01 02:48:17
  TRACK 79 AUDIO
    TITLE "3:cjc151_5013"
    INDEX 01 02:49:71
  TRACK 80 AUDIO
    TITLE "0:"
    INDEX 01 02:53:08
  TRACK 81 AUDIO
    TITLE "2:cjc151_5014"
    INDEX 01 02:54:60
  TRACK 82 AUDIO
    TITLE "0:"
    INDEX 01 02:56:22
  TRACK 83 AUDIO
    TITLE "3:cjc151_5015"
    INDEX 01 02:58:01
  TRACK 84 AUDIO
    TITLE "0:"
    INDEX 01 03:01:39
  TRACK 85 AUDIO
    TITLE "2:cjc151_5016"
    INDEX 01 03:03:18
  TRACK 86 AUDIO
    TITLE "0:"
    INDEX 01 03:04:57
  TRACK 87 AUDIO
    TITLE "3:cjc151_5017"
    INDEX 01 03:06:36
  TRACK 88 AUDIO
    TITLE "0:"
    INDEX 01 03:09:46
